<svg width="156" height="40" viewBox="0 0 156 40" fill="none" xmlns="http://www.w3.org/2000/svg">
<g clip-path="url(#clip0_691_1834)">
<path d="M43.7899 5.92125C44.4575 5.55061 44.9472 5.07723 45.4898 4.63564C47.6685 2.86251 51.054 1.5168 54.7843 1.6494C56.7456 1.71899 58.7049 2.20206 60.258 2.99878C58.612 2.78438 56.8586 3.1653 55.8754 3.95097C55.0797 4.58679 54.7969 5.42267 54.1126 6.10832C52.8638 7.35922 50.203 7.9776 47.7956 7.57731" fill="#81C241"/>
<path d="M85.4249 30.8879V27.7171C85.8269 27.6322 86.1683 27.4952 86.4488 27.307C86.7287 27.1187 87.0071 26.8487 87.2823 26.4959C87.7162 25.9618 87.9488 25.3084 87.981 24.5372C88.0122 23.7657 88.0387 23.1185 88.0602 22.5958C88.1337 21.7456 88.2132 21.1385 88.2985 20.7737C88.4251 20.2272 88.6418 19.6867 88.9488 19.1519C89.4565 18.2773 90.0127 17.6337 90.6158 17.2204C91.2615 16.7709 92.0183 16.5464 92.8861 16.5464V19.7897C92.2088 19.9599 91.6528 20.3613 91.219 20.9927C90.9864 21.3209 90.8377 21.6551 90.7745 21.9953C90.7113 22.3353 90.6795 22.7668 90.6795 23.2887V23.6897V23.9997C90.6795 25.1172 90.6055 25.9923 90.4572 26.6236C90.3089 27.2554 89.9916 27.9174 89.5046 28.61C88.9436 29.4122 88.346 29.992 87.7107 30.3502C87.0759 30.709 86.3142 30.8879 85.4249 30.8879Z" fill="#E97224"/>
<path d="M96.0606 16.4733C95.5525 16.4733 95.1559 16.2854 94.8698 15.9084C94.5841 15.5327 94.4414 15.0894 94.4414 14.5801C94.4414 14.0825 94.5817 13.6582 94.8621 13.3062C95.1424 12.9541 95.5421 12.7783 96.0606 12.7783C96.5263 12.7783 96.9017 12.9724 97.1875 13.3604C97.442 13.7127 97.5688 14.1372 97.5688 14.6348C97.5688 15.1198 97.4337 15.5475 97.164 15.9175C96.8942 16.2883 96.5263 16.4733 96.0606 16.4733ZM94.6795 17.3652H97.3782V30.815H94.6795V17.3652Z" fill="#E97224"/>
<path d="M107.935 30.1599C107.162 30.5848 106.305 30.7967 105.363 30.7967C103.849 30.7967 102.484 30.287 101.267 29.268C99.9973 28.2004 99.2773 26.8654 99.1081 25.2638C99.055 24.7426 99.0286 24.2934 99.0286 23.9172C99.0286 21.6726 99.6267 19.8704 100.823 18.5115C101.976 17.2013 103.447 16.5457 105.236 16.5457C106.95 16.5457 108.435 17.1824 109.689 18.457C110.943 19.731 111.57 21.3143 111.57 23.2069V30.3235C111.57 31.9127 110.985 33.2353 109.814 34.2906C108.697 35.298 107.368 35.8013 105.829 35.8013H105.592C105.107 35.8013 104.706 35.7803 104.39 35.7379C104.074 35.695 103.71 35.5952 103.299 35.4374V32.3981C103.701 32.5438 104.053 32.6408 104.355 32.6894C104.656 32.7373 105.029 32.7619 105.474 32.7619C105.855 32.7619 106.256 32.7104 106.681 32.6074C107.104 32.5039 107.4 32.4041 107.569 32.3071C107.993 32.0641 108.288 31.8396 108.458 31.6335C108.733 31.2937 108.871 30.8572 108.871 30.3233V23.4071C108.871 22.315 108.485 21.414 107.712 20.7043C106.939 19.9944 106.04 19.6397 105.014 19.6397C104.104 19.6397 103.315 20.0402 102.648 20.8412C101.982 21.6416 101.648 22.5699 101.648 23.6254C101.648 23.8074 101.664 24.0017 101.696 24.2077C101.855 25.3245 102.304 26.204 103.045 26.847C103.723 27.4415 104.506 27.7391 105.395 27.7391C106.453 27.7391 107.299 27.3386 107.935 26.5376V30.1599Z" fill="#E97224"/>
<path d="M119.047 30.8515C117.099 30.8515 115.554 30.1166 114.411 28.6463C113.385 27.3221 112.872 25.6941 112.872 23.7621C112.872 21.8065 113.395 20.1485 114.443 18.7873C115.618 17.2689 117.2 16.5098 119.19 16.5098C121.137 16.5098 122.682 17.2446 123.825 18.7148C124.851 20.0386 125.365 21.6669 125.365 23.5984C125.365 25.554 124.841 27.213 123.793 28.5734C122.619 30.0918 121.037 30.8515 119.047 30.8515ZM119.317 19.476C118.163 19.476 117.248 19.9141 116.571 20.7894C115.957 21.5801 115.65 22.5466 115.65 23.6896C115.65 24.796 115.941 25.7263 116.523 26.4802C117.179 27.3196 118.068 27.7389 119.19 27.7389C120.343 27.7389 121.258 27.301 121.936 26.4253C122.55 25.6354 122.857 24.6685 122.857 23.525C122.857 22.4193 122.565 21.4888 121.984 20.7343C121.327 19.8957 120.438 19.476 119.317 19.476Z" fill="#E97224"/>
<path d="M129.619 30.8514L126.651 30.8331V22.8977C126.651 21.6848 126.843 20.6351 127.23 19.7492C127.616 18.8635 128.232 18.093 129.079 17.4378C129.598 17.0373 130.084 16.7492 130.54 16.573C130.995 16.3972 131.492 16.3096 132.032 16.3096C132.169 16.3096 132.334 16.3183 132.524 16.3367C132.714 16.3551 132.931 16.3887 133.175 16.4367V19.6583C132.91 19.5736 132.634 19.531 132.349 19.531C131.799 19.531 131.27 19.7436 130.762 20.1679C130.391 20.4715 130.108 20.8175 129.913 21.2056C129.716 21.5939 129.619 22.0425 129.619 22.5525L129.619 30.8514Z" fill="#E97224"/>
<path d="M134.635 12.6331H137.302V16.2914H139.143V19.4945H137.302V25.5498C137.302 25.8782 137.352 26.1641 137.453 26.4072C137.553 26.6505 137.715 26.9 137.937 27.1553C138.361 27.6412 138.858 27.8847 139.43 27.8847H139.874V30.8512H139.627H139.445C138.969 30.8512 138.503 30.7663 138.048 30.5959C137.487 30.3896 136.868 30.0186 136.191 29.4836C135.778 29.1548 135.423 28.6446 135.127 27.9518C134.799 27.1861 134.635 26.4076 134.635 25.6171V12.6331Z" fill="#E97224"/>
<path d="M151.002 26.7747V30.5239C150.017 31.0698 149.043 31.3427 148.08 31.3427C146.599 31.3427 145.223 30.718 143.953 29.468C143.159 28.6918 142.588 27.8637 142.239 26.9836C141.89 26.104 141.715 25.0519 141.715 23.826C141.715 21.8238 142.342 20.1161 143.596 18.7024C144.85 17.2892 146.35 16.5823 148.096 16.5823C149.885 16.5823 151.42 17.277 152.7 18.666C153.981 20.0559 154.621 21.7577 154.621 23.7718V30.8149H151.827V23.6805C151.827 22.5522 151.454 21.603 150.708 20.8324C149.962 20.0619 149.08 19.6765 148.064 19.6765C147.049 19.6765 146.186 20.0828 145.477 20.8962C144.768 21.7088 144.414 22.6978 144.414 23.8627C144.414 25.0636 144.77 26.0919 145.485 26.9474C146.199 27.8028 147.075 28.2309 148.112 28.2309C148.736 28.2309 149.273 28.1188 149.724 27.8942C150.174 27.6693 150.599 27.2963 151.002 26.7747Z" fill="#E97224"/>
<path d="M0 7.69824H4.76191C8.47392 7.69824 11.662 8.85552 14.3251 11.1709C16.988 13.4856 18.3193 16.3311 18.3193 19.7074C18.3193 23.0191 17.1093 25.8768 14.6895 28.2798C12.2693 30.6835 9.31581 31.8852 5.82904 31.8852H0V7.69824ZM4.76191 27.2791C4.76191 27.3596 4.93521 27.3999 5.28239 27.3999C6.14987 27.3999 7.13016 27.1991 8.22289 26.797C9.6973 26.2506 10.8683 25.4789 11.7358 24.4819C12.8632 23.1796 13.4274 21.5724 13.4274 19.6587C13.4274 17.5367 12.6209 15.817 11.0075 14.4987C9.11615 12.9548 7.0689 12.1833 4.866 12.1833L4.76191 12.2318V27.2791Z" fill="#006838"/>
<path d="M28.7699 31.8851C25.5776 31.8851 23.045 30.6802 21.1713 28.2706C19.4886 26.1001 18.6473 23.431 18.6473 20.2645C18.6473 17.0584 19.5059 14.3402 21.2236 12.1096C23.1493 9.62 25.7424 8.37549 29.0041 8.37549C32.1957 8.37549 34.7289 9.58026 36.6024 11.9898C38.2848 14.1609 39.1267 16.83 39.1267 19.9962C39.1267 23.2024 38.2678 25.921 36.5503 28.151C34.625 30.6404 32.0315 31.8851 28.7699 31.8851ZM29.2123 13.2384C27.3213 13.2384 25.8203 13.9564 24.7104 15.3911C23.7041 16.6872 23.201 18.2717 23.201 20.145C23.201 21.9593 23.6781 23.4841 24.6322 24.7199C25.7075 26.0954 27.1647 26.7832 29.0039 26.7832C30.8945 26.7832 32.3951 26.0656 33.5055 24.6307C34.5116 23.335 35.015 21.7499 35.015 19.8762C35.015 18.0631 34.5377 16.5379 33.5836 15.3019C32.5079 13.9267 31.0512 13.2384 29.2123 13.2384Z" fill="#006838"/>
<path d="M56.5324 29.9527C55.266 30.6494 53.8079 31.5297 50.0833 31.7954C47.607 31.9724 45.3642 30.9601 43.3697 29.2895C41.2879 27.5397 40.108 25.3515 39.8306 22.7258C39.7437 21.8706 39.7005 21.1347 39.7005 20.5181C39.7005 16.839 40.6804 13.8851 42.641 11.6574C44.5318 9.50918 46.9429 8.43506 49.8747 8.43506C52.6853 8.43506 55.1183 9.47913 57.1741 11.5679C59.2296 13.656 60.2578 16.2518 60.2578 19.3544V31.0197C60.2578 33.6252 59.2985 35.7936 57.3805 37.5235C55.5481 39.1747 53.3709 39.9999 50.8482 39.9999H50.4593C49.6638 39.9999 49.007 39.9652 48.489 39.8956C47.9699 39.8256 47.3738 39.6614 46.7 39.4032V34.4211C47.3593 34.6598 47.9362 34.8187 48.4309 34.8984C48.9248 34.9775 49.5368 35.0176 50.2651 35.0176C50.8899 35.0176 51.5489 34.9331 52.2431 34.7639C52.9365 34.5942 53.4225 34.4306 53.7001 34.2715C54.3939 33.8737 54.8793 33.5058 55.1574 33.1677C55.6083 32.611 55.834 31.8949 55.834 31.0197V19.6828C55.834 17.8926 55.2007 16.4156 53.9343 15.2523C52.6678 14.0887 51.193 13.5073 49.5106 13.5073C48.0182 13.5073 46.7264 14.1633 45.6334 15.4764C44.5401 16.7888 43.9939 18.3105 43.9939 20.0408C43.9939 20.3389 44.0198 20.6574 44.0722 20.9953C44.3321 22.8255 45.0695 24.2675 46.284 25.3216C47.3938 26.2961 48.678 26.7831 50.1352 26.7831C51.8698 26.7831 55.2154 25.8427 56.2564 24.5304L56.5324 29.9527Z" fill="#006838"/>
<path d="M78.1199 24.7277L78.1889 30.5015C76.5755 31.3967 73.3271 32.6903 71.7486 32.6903C69.3195 32.6903 67.0645 31.6663 64.9827 29.6174C63.6816 28.3451 62.7451 26.9878 62.1725 25.545C61.5999 24.1031 61.3135 22.3781 61.3135 20.3688C61.3135 17.0867 62.3417 14.2876 64.3973 11.9703C66.4533 9.6536 68.9124 8.49438 71.7748 8.49438C74.7064 8.49438 77.222 9.63325 79.321 11.9106C81.4198 14.1883 82.4698 16.978 82.4698 20.2791V31.8253H77.8902V20.1298C77.8902 18.2799 77.2784 16.7243 76.0556 15.4609C74.8324 14.198 73.3878 13.5663 71.7227 13.5663C70.0573 13.5663 68.643 14.2329 67.481 15.565C66.3185 16.8977 65.7376 18.5187 65.7376 20.4285C65.7376 22.3972 66.3232 24.0832 67.4944 25.4855C68.6653 26.8874 70.1003 27.5885 71.8008 27.5885C72.8241 27.5885 73.6703 27.2964 74.442 27.037C76.016 26.5072 77.4604 25.5832 78.1199 24.7277Z" fill="#006838"/>
<path d="M58.2352 2.20532C57.9748 2.22529 57.7089 2.21618 57.4464 2.21346C56.42 2.2028 55.392 2.33346 54.4192 2.59729C52.4643 3.12843 50.7976 4.1725 48.981 4.96147C47.4114 5.64304 45.5724 6.13542 43.8545 5.88284C43.8328 5.89544 43.812 5.90881 43.7899 5.92102L47.7958 7.57688C50.2028 7.97757 52.8642 7.35861 54.1126 6.10809C54.7971 5.42244 55.0801 4.58637 55.8756 3.95074C56.8586 3.16526 58.6122 2.78416 60.258 2.99855C59.64 2.68142 58.9563 2.41681 58.2352 2.20532Z" fill="#599F4D"/>
</g>
<defs>
<clipPath id="clip0_691_1834">
<rect width="155.079" height="40" fill="white"/>
</clipPath>
</defs>
</svg>
