<svg width="167" height="48" viewBox="0 0 167 48" fill="none" xmlns="http://www.w3.org/2000/svg">
<g id="Group 15">
<path id="Vector" d="M17.1852 36.8569C12.1858 36.8569 8.07126 35.1708 4.84146 31.7986C1.61382 28.4264 0 24.1275 0 18.9042C0 13.6809 1.42345 9.40464 4.27251 5.89005C5.72625 4.1158 7.50015 2.70771 9.59206 1.6635C11.8354 0.553746 14.1847 0 16.6379 0C21.3647 0 25.4274 1.67932 28.8216 5.03344C30.3662 6.55229 31.6014 8.50961 32.5273 10.8986C33.4511 13.2899 33.914 15.7671 33.914 18.3324C33.914 20.2965 33.6414 22.2583 33.0963 24.2224C32.5511 26.1865 32.2785 27.2624 32.2785 27.4523C32.2785 28.4648 32.43 29.2423 32.7328 29.7802C32.7631 29.8435 33.2174 30.4606 34.0957 31.6336C34.8832 32.6778 35.2769 33.5344 35.2769 34.1989C35.2769 35.2748 34.8961 36.1947 34.1411 36.9541C33.384 37.7135 32.3975 38.0932 31.1861 38.0932C30.1542 38.0932 28.9427 37.7678 27.5496 37.1191C26.1543 36.4704 24.9428 36.1449 23.9131 36.1449C22.8834 36.1449 21.7757 36.2647 20.6854 36.502C19.5951 36.7394 18.427 36.8592 17.1852 36.8592V36.8569ZM9.54663 17.86C9.54663 21.1531 10.3189 23.7501 11.8657 25.6486C13.168 27.233 14.6693 28.0241 16.3653 28.0241C18.9721 28.0241 20.9883 27.0432 22.4118 25.0791C23.6535 23.3704 24.2765 21.1847 24.2765 18.5245C24.2765 15.8643 23.6232 13.4752 22.3209 11.7326C20.958 9.86572 19.063 8.93001 16.6379 8.93001C14.6974 8.93001 13.062 9.70525 11.7272 11.258C10.2735 12.9373 9.54446 15.1365 9.54446 17.86H9.54663Z" fill="#003057"/>
<path id="Vector_2" d="M61.0099 0.205393C57.1917 0.205393 56.0884 2.88824 56.0884 7.24136V22.0546C56.0884 27.0542 51.4633 27.1672 51.4633 27.1672C51.4633 27.1672 46.8382 27.0519 46.8382 22.0546V7.24136C46.8382 2.88824 45.7349 0.205393 41.9167 0.205393C41.9167 0.205393 36.6729 0.157929 36.6729 7.29561V25.2958C36.6729 28.4962 39.3662 36.9538 51.4655 36.9538C63.5648 36.9538 66.2581 28.4984 66.2581 25.2958V7.29335C66.2581 0.155669 61.0143 0.203133 61.0143 0.203133L61.0099 0.205393Z" fill="#003057"/>
<path id="Vector_3" d="M79.2845 20.3883C79.2845 19.6288 79.2845 19.213 79.2845 19.213C79.2845 15.956 79.2845 10.9452 79.2845 6.95143C79.2845 0.475994 75.8859 0.207031 74.5079 0.207031C74.5079 0.207031 69.1191 0.213812 69.1191 7.45546V29.7048C69.1191 36.9464 74.5079 36.9532 74.5079 36.9532C75.8838 36.9532 79.2845 36.6842 79.2845 30.2088C79.2845 27.1349 79.2845 24.5018 79.2845 22.5852C79.2845 22.5852 79.2845 21.7421 79.2845 20.3905V20.3883Z" fill="#003057"/>
<path id="Vector_4" d="M136.276 18.5459C138.597 15.2913 141.113 11.7608 142.725 9.4871C146.413 4.28188 143.834 1.95389 142.729 1.09728C142.729 1.09728 138.394 -2.2478 134.268 3.57218C131.722 7.16362 127.815 12.6355 125.198 16.3016C125.198 13.3678 125.198 9.88263 125.198 6.94665C125.198 0.471206 121.799 0.202244 120.421 0.202244C120.421 0.202244 115.032 0.209025 115.032 7.45067V19.2082V29.7C115.032 36.9416 120.421 36.9484 120.421 36.9484C121.195 36.9484 122.61 36.8625 123.701 35.6352C124.35 35.0995 125.033 34.3605 125.749 33.3502C127.402 31.0199 128.828 29.0061 129.903 27.4918C131.398 29.5214 132.946 31.6482 134.268 33.5152C138.394 39.3351 142.729 35.9901 142.729 35.9901C143.834 35.1335 146.413 32.8055 142.725 27.6002C141.113 25.3265 138.597 21.7961 136.276 18.5414V18.5459Z" fill="#003057"/>
<path id="Vector_5" d="M110.119 23.2237C105.65 21.0787 103.967 24.8804 103.967 24.8804C103.967 24.8804 102.712 26.9598 100.028 27.5677C97.3429 28.1757 94.4851 27.4208 92.536 24.1775C91.768 22.9005 91.4089 21.515 91.251 20.3035H91.2553C91.2553 20.3035 91.2424 20.2221 91.2251 20.0797C91.1666 19.5576 91.145 19.0717 91.145 18.6468C91.145 18.2219 91.1666 17.7359 91.2251 17.2138C91.2424 17.0714 91.2553 16.9901 91.2553 16.9901H91.251C91.4068 15.7786 91.768 14.3931 92.536 13.1161C94.483 9.87273 97.3429 9.11783 100.028 9.72582C102.712 10.3338 103.967 12.4132 103.967 12.4132C103.967 12.4132 105.65 16.2148 110.119 14.0699C114.589 11.925 111.891 6.99551 110.861 5.9626C109.832 4.9297 105.793 0.386719 98.1498 0.386719C90.5068 0.386719 86.124 5.97164 85.2868 7.27125C84.6724 8.22505 83.0045 10.3813 82.1587 14.705C82.1068 14.9966 81.9964 15.6339 81.8948 16.3617C81.8688 16.5697 81.8385 16.7731 81.8169 16.9901H81.8147C81.7455 17.58 81.6936 18.1744 81.6914 18.649C81.6914 19.1214 81.7433 19.7158 81.8126 20.3035H81.8169C81.8407 20.5273 81.8688 20.7397 81.8969 20.9544C81.9943 21.6551 82.1003 22.2699 82.1544 22.5659C82.998 26.9055 84.6703 29.0662 85.2868 30.0223C86.124 31.3219 90.5068 36.9068 98.1498 36.9068C105.793 36.9068 109.829 32.3639 110.861 31.331C111.891 30.298 114.589 25.3686 110.119 23.2237Z" fill="#003057"/>
<path id="Vector_6" d="M164.756 21.888L164.555 22.0417C162.398 23.7866 158.887 22.9006 157.207 20.6382L155.645 18.543L148.134 28.6166C146.455 30.8791 146.842 34.1292 148.999 35.8741C151.158 37.619 154.269 37.2008 155.948 34.9384L164.458 23.3707C165.131 22.4644 165.689 21.2733 165.966 20.0483C165.758 20.7647 165.373 21.4021 164.756 21.888Z" fill="#99CA3C"/>
<path id="Vector_7" d="M164.556 15.0466L164.757 15.2003C165.374 15.6863 165.759 16.3237 165.967 17.0401C165.69 15.8174 165.132 14.624 164.459 13.7177L155.948 2.15001C154.27 -0.112438 151.157 -0.530572 149 1.21429C146.843 2.95916 146.454 6.20931 148.135 8.47176L155.646 18.5454L157.207 16.4502C158.886 14.1878 162.397 13.3018 164.556 15.0466Z" fill="#E21B79"/>
<path id="Vector_8" d="M166.154 18.5439C166.154 18.5439 166.154 18.5281 166.154 18.5191C166.145 18.0309 166.078 17.5314 165.966 17.0386C165.758 16.3222 165.373 15.6848 164.756 15.1989L164.555 15.0452C162.398 13.3003 158.887 14.1863 157.206 16.4487L155.645 18.5439L157.206 20.6391C158.885 22.9016 162.396 23.7876 164.555 22.0427L164.756 21.889C165.373 21.4031 165.758 20.7657 165.966 20.0492C166.078 19.5542 166.145 19.0547 166.154 18.5688C166.154 18.5598 166.154 18.553 166.154 18.5439Z" fill="#003057"/>
<g id="Group">
<path id="Vector_9" d="M103.337 43.4872C104.829 43.8397 105.208 44.7664 105.208 45.6389C105.208 46.9904 104.232 47.9985 102.264 47.9985C100.193 47.9985 99.2695 46.9181 99.2695 46.1067C99.2695 45.6908 99.5572 45.3993 99.9553 45.3993C100.84 45.3993 100.613 46.7509 102.264 46.7509C103.109 46.7509 103.577 46.2627 103.577 45.7632C103.577 45.4626 103.438 45.1281 102.88 44.9834L101.039 44.4952C99.5572 44.0997 99.289 43.2476 99.289 42.4475C99.289 40.784 100.762 40.1602 102.145 40.1602C103.419 40.1602 104.92 40.9083 104.92 41.9073C104.92 42.3345 104.572 42.5831 104.174 42.5831C103.417 42.5831 103.557 41.4711 102.034 41.4711C101.277 41.4711 100.86 41.835 100.86 42.3548C100.86 42.8746 101.457 43.0419 101.974 43.1662L103.337 43.4894V43.4872Z" fill="#003057"/>
<path id="Vector_10" d="M107.027 40.1641C107.444 40.1641 107.784 40.5167 107.784 40.9551C107.784 41.3936 107.446 41.7462 107.027 41.7462C106.607 41.7462 106.27 41.3936 106.27 40.9551C106.27 40.5167 106.607 40.1641 107.027 40.1641ZM106.3 43.0119C106.3 42.6073 106.46 42.2525 107.027 42.2525C107.593 42.2525 107.754 42.6051 107.754 43.0119V47.2C107.754 47.6046 107.593 47.9595 107.027 47.9595C106.46 47.9595 106.3 47.6069 106.3 47.2V43.0119Z" fill="#003057"/>
<path id="Vector_11" d="M115.812 47.386C115.812 47.6979 115.583 47.9578 115.254 47.9578C114.787 47.9578 114.657 47.6572 114.558 46.9904C114.09 47.603 113.444 47.9985 112.429 47.9985C109.902 47.9985 108.938 46.179 108.938 44.0793C108.938 41.5524 110.45 40.1602 112.669 40.1602C114.48 40.1602 115.445 41.2925 115.445 41.9593C115.445 42.5514 115.027 42.7074 114.679 42.7074C113.872 42.7074 114.171 41.5321 112.58 41.5321C111.456 41.5321 110.571 42.3006 110.571 44.1923C110.571 45.6682 111.267 46.6876 112.6 46.6876C113.465 46.6876 114.222 46.0751 114.3 45.1597H113.236C112.888 45.1597 112.5 45.0241 112.5 44.5042C112.5 44.0884 112.73 43.8488 113.136 43.8488H115.146C115.624 43.8488 115.812 44.0974 115.812 44.5653V47.3815V47.386Z" fill="#003057"/>
<path id="Vector_12" d="M120.574 40.1641C122.922 40.1641 124.196 41.7959 124.196 43.9883C124.196 46.1807 123.021 48.0001 120.574 48.0001C118.128 48.0001 116.953 46.253 116.953 43.9883C116.953 41.7236 118.227 40.1641 120.574 40.1641ZM120.574 46.6305C122.056 46.6305 122.565 45.4258 122.565 43.9906C122.565 42.5553 121.907 41.5383 120.574 41.5383C119.242 41.5383 118.584 42.5576 118.584 43.9906C118.584 45.4235 119.043 46.6305 120.574 46.6305Z" fill="#003057"/>
<path id="Vector_13" d="M125.391 41.3349C125.391 40.5755 125.769 40.3359 126.347 40.3359H129.064C131.004 40.3359 131.521 41.4479 131.521 42.4153C131.521 43.2267 131.063 44.0268 130.288 44.2144V44.2348C131.123 44.3591 131.273 44.9942 131.273 45.7513C131.273 46.6147 131.491 46.9357 131.491 47.2905C131.491 47.6861 131.104 47.955 130.725 47.955C129.83 47.955 129.76 47.051 129.76 46.7504C129.76 45.4417 129.531 44.9106 128.636 44.9106H127.024V47.1029C127.024 47.6115 126.706 47.955 126.208 47.955C125.711 47.955 125.393 47.6115 125.393 47.1029V41.3349H125.391ZM127.022 43.6629H128.653C129.269 43.6629 129.886 43.4957 129.886 42.6549C129.886 41.8141 129.419 41.6468 128.703 41.6468H127.022V43.6629Z" fill="#003057"/>
<path id="Vector_14" d="M134.335 41.7728H132.792C132.325 41.7728 131.946 41.5242 131.946 41.0563C131.946 40.5885 132.325 40.3398 132.792 40.3398H137.508C137.975 40.3398 138.354 40.5885 138.354 41.0563C138.354 41.5242 137.975 41.7728 137.508 41.7728H135.966V47.1046C135.966 47.6131 135.648 47.9567 135.15 47.9567C134.653 47.9567 134.335 47.6131 134.335 47.1046V41.7728Z" fill="#003057"/>
<path id="Vector_15" d="M140.283 40.723C140.421 40.3387 140.681 40.2031 141.079 40.2031H141.466C141.834 40.2031 142.163 40.2958 142.342 40.8269L144.313 46.5543C144.374 46.7215 144.473 47.0221 144.473 47.2097C144.473 47.6256 144.125 47.9578 143.707 47.9578C143.348 47.9578 143.091 47.8222 142.972 47.49L142.554 46.2424H139.928L139.5 47.49C139.389 47.8222 139.162 47.9578 138.773 47.9578C138.325 47.9578 138.016 47.6663 138.016 47.2097C138.016 47.0221 138.115 46.7215 138.176 46.5543L140.285 40.723H140.283ZM141.267 42.0542H141.248L140.283 45.058H142.193L141.267 42.0542Z" fill="#003057"/>
</g>
</g>
</svg>
