<?xml version="1.0" encoding="UTF-8"?> <svg xmlns="http://www.w3.org/2000/svg" xmlns:xlink="http://www.w3.org/1999/xlink" id="katman_2" version="1.1" viewBox="0 0 171.3 55.3"><defs><style> .st0 { fill: #e84e1b; } .st1 { fill: url(#linear-gradient2); } .st2 { fill: url(#linear-gradient1); } .st3 { fill: url(#linear-gradient); } </style><linearGradient id="linear-gradient" x1="31.1" y1="3" x2="31.1" y2="3" gradientTransform="translate(0 50.8) scale(1 -1)" gradientUnits="userSpaceOnUse"><stop offset="0" stop-color="#e20613"></stop><stop offset="1" stop-color="#f8b133"></stop></linearGradient><linearGradient id="linear-gradient1" x1="40.2" y1="29.1" x2="40.2" y2="29.1" gradientTransform="translate(0 50.8) scale(1 -1)" gradientUnits="userSpaceOnUse"><stop offset="0" stop-color="#e20613"></stop><stop offset="1" stop-color="#f8b133"></stop></linearGradient><linearGradient id="linear-gradient2" x1="11.2" y1="22.9" x2="51" y2="22.9" gradientTransform="translate(0 50.8) scale(1 -1)" gradientUnits="userSpaceOnUse"><stop offset="0" stop-color="#e20613"></stop><stop offset="1" stop-color="#f8b133"></stop></linearGradient></defs><g><path class="st0" d="M68.2,10.1c-2.2,0-3.9.7-4.9,2.1v-1.9h-4v14.3h4.2v-6.8c0-2.7,1.5-4,3.8-4s.6,0,.9,0l2.2-3.8h-2.2Z"></path><path class="st0" d="M84.7,17.5c0-4.6-3.2-7.4-7.5-7.4s-7.6,3.1-7.6,7.4,3.2,7.4,8.2,7.4,4.1-.6,5.4-1.8l-1.5-2.7v-.2c-1.1.9-2.2,1.4-3.7,1.4-2.2,0-3.7-1.1-4.1-2.9h10.8v-1.1h0ZM73.7,16.2c.3-1.8,1.6-3,3.5-3s.2,0,.2,0c1.7,0,3,1.2,3.3,3h-7.1,0Z"></path><path class="st0" d="M94.9,8.3c-.4-.2-.9-.3-1.4-.3-1.2,0-1.9.7-1.9,2.1v.6h4.4l-1.8,3.2h-2.5v10.8h-4.2v-10.8h-2.2v-3.2h2.2v-.6c0-3.2,2-5.3,5.5-5.3s2.4.2,3.2.8h.2c0,.1-1.6,2.8-1.6,2.8h.1Z"></path><path class="st0" d="M128,10.1c-.7,0-1.4,0-3.3.2l-2.1,3.6c1-.2,2.1-.3,3-.4s1.6,0,1.8,0c2.2,0,3.3,1,3.3,2.8h-3.3c-4.4,0-6.2,1.8-6.2,4.3s2,4.3,5.4,4.3,3.6-.7,4.4-2v1.8h3.9v-8.2c0-4.3-2.5-6.4-6.9-6.4h0ZM130.7,20.1c-.5,1.3-1.7,1.9-3.1,1.9s-2.3-.7-2.3-1.7.6-1.7,2.6-1.7h2.8v1.5Z"></path><path class="st0" d="M145.8,10.1c-1.9,0-3.6.7-4.7,1.9v-1.7h-4v14.3h4.2v-7.1c0-2.6,1.4-3.9,3.4-3.9s2.9,1.1,2.9,3.4v7.6h4.2v-8.2c0-4.4-2.6-6.3-5.9-6.3h0Z"></path><path class="st0" d="M162.6,16.4c-1.9-.5-4.1-.5-4.9-1.2-.2-.2-.3-.4-.3-.7,0-.7.8-1.3,2.7-1.3s2.6.2,3.9.9l1.6-2.8h0c-1.4-.8-3.5-1.3-5.5-1.3-4.2,0-6.6,1.9-6.6,4.6s1.1,3.1,2.5,3.6c1.6.7,3.7.7,5,1,.7.2,1.2.5,1.2,1,0,.8-.7,1.3-2.5,1.3h-.1c-1.6,0-3.5-.5-4.7-1.2l-1.3,2.2-.4.6c1.1.7,2.8,1.3,4.7,1.5h1.5c4.3,0,6.8-1.9,6.8-4.6s-1.6-3.4-3.4-3.9l-.2.3Z"></path><path class="st0" d="M120.7,10.1c-2.2,0-3.9.7-4.9,2.1v-1.9h-4v14.3h4.2v-6.8c0-2.7,1.5-4,3.8-4s.6,0,.9,0l2.2-3.8h-2.2Z"></path><path class="st0" d="M110.4,17.5c0-4.6-3.3-7.4-7.5-7.4s-7.6,3.1-7.6,7.4,3.2,7.4,8.2,7.4,4.1-.6,5.4-1.8l-1.6-2.7v-.2c-1.1.9-2.2,1.4-3.7,1.4-2.2,0-3.7-1.1-4.1-2.9h10.8v-1.1h0ZM99.5,16.2c.3-1.8,1.7-3,3.5-3s.2,0,.2,0c1.7,0,3,1.2,3.3,3h-7.1,0Z"></path></g><g><rect class="st0" x="73.1" y="33.8" width="4.2" height="12.2"></rect><path class="st0" d="M90.8,31.7v1.8c-1.1-1.4-2.7-2-4.7-2-4,0-7.2,2.7-7.2,6.9s1.5,5,3.6,6.1c1,.5,2.3.8,3.5.8,1.9,0,3.4-.6,4.5-1.8v.6c0,2.6-1.3,3.9-4.2,3.9s-3.8-.6-5-1.6l-1.7,2.9c1.7,1.3,4.3,2,7,2,5.2,0,8-2.4,8-7.8v-11.9h-3.9,0ZM86.9,41.9c-2.2,0-3.8-1.4-3.8-3.5s1.6-3.5,3.8-3.5,3.8,1.4,3.8,3.5-1.6,3.5-3.8,3.5Z"></path><path class="st0" d="M104.3,31.5c-4.6,0-7.9,3.1-7.9,7.4s3.3,7.4,7.9,7.4,7.9-3.1,7.9-7.4-3.3-7.4-7.9-7.4ZM104.3,42.8c-2.1,0-3.7-1.5-3.7-4s1.6-4,3.7-4,3.6,1.5,3.6,4-1.6,4-3.6,4Z"></path><path class="st0" d="M126.8,35.2v5.9c0,3.4,2,5.1,5.4,5.1s2.1-.2,2.9-.6l-1.6-2.8h-.7c-1.1,0-1.8-.7-1.8-1.9v-5.8h3.3l2-3.5h-5.2v-3.2h-2.3l-3.9,6.7h2,0Z"></path><path class="st0" d="M141.5,31.5c-.7,0-1.4,0-3.3.2l-2.1,3.6c1-.2,2.1-.3,3-.4.9,0,1.6,0,1.8,0,2.2,0,3.3,1,3.3,2.8h-3.3c-4.4,0-6.2,1.8-6.2,4.3s2,4.3,5.4,4.3,3.6-.7,4.4-2v1.8h3.9v-8.2c0-4.3-2.5-6.4-6.9-6.4h0ZM144.2,41.5c-.5,1.3-1.7,1.9-3.1,1.9s-2.3-.7-2.3-1.7.6-1.7,2.6-1.7h2.8v1.5Z"></path><path class="st0" d="M122.7,31.5c-2.2,0-3.9.7-4.9,2.1v-1.9h-4v14.3h4.2v-6.8c0-2.7,1.5-4,3.8-4s.6,0,.9,0l2.2-3.8h-2.2Z"></path><path class="st0" d="M68,37.8c-1.9-.5-4.1-.5-4.9-1.2-.2-.2-.3-.4-.3-.7,0-.7.8-1.3,2.7-1.3s2.6.2,3.9.9l1.6-2.8h0c-1.4-.8-3.5-1.3-5.5-1.3-4.2,0-6.6,1.9-6.6,4.6s1.1,3.1,2.5,3.6c1.6.7,3.7.7,5,1,.7.2,1.2.5,1.2,1,0,.8-.7,1.3-2.5,1.3h0c-1.6,0-3.5-.5-4.7-1.2l-1.3,2.2-.4.6c1.1.7,2.8,1.3,4.7,1.5h1.5c4.3,0,6.8-1.9,6.8-4.6s-1.6-3.4-3.4-3.9l-.2.3Z"></path><path class="st0" d="M72.5,30.3c0-1.3,1-2.3,2.6-2.3s2.6,1,2.6,2.2-1,2.4-2.6,2.4-2.6-1-2.6-2.3Z"></path></g><g><polygon class="st3" points="31.1 47.9 31.1 47.9 31.1 47.9 31.1 47.9"></polygon><polygon class="st2" points="40.2 21.8 40.2 21.8 40.2 21.8 40.2 21.8"></polygon><path class="st1" d="M51,28c0-11-8.9-19.9-19.9-19.9s-1.4,0-2.1.1c-.7,0-1.3.2-1.9.3-9,1.9-15.8,9.9-15.8,19.5s4.7,14.9,11.5,18l3.3-5.7.5-.8h0c0,0,5.3-9.3,5.3-9.3.1-.2.3-.5.5-.8,0,0,0,0,0-.2.5-.7,1.1-1.1,1.8-1.5.6-.3,1.3-.4,2-.5h.6c.2,0,0,0,0,0h1.2l3.1-5.4h-3.6c-3.2.2-4.9,1.7-5.6,2.4-.2.3-.4.5-.4.5v-2.7h-6.2v18.1c-4.7-2.1-7.9-6.8-7.9-12.2s1.5-7.1,4-9.5c.4-.4.8-.7,1.2-1.1,2.3-1.8,5.1-2.8,8.2-2.8,7.4,0,13.4,6,13.4,13.4s-1.9,7.9-5.1,10.4l-1.7-3.1c-1.2,3.3-4.4,5.7-8.1,5.7s-1.1,0-1.7-.2c.6.6,1.2,1.2,1.9,1.8,4,3.4,9.2,5.4,14.9,5.4h0l-2.2-3.8h0c5.3-3.7,8.5-9.8,8.5-16.3v.2Z"></path></g></svg> 