<svg viewBox="0 0 208 45" fill="none" xmlns="http://www.w3.org/2000/svg">
<path d="M149.1 11.8V40.2001H144.9V15.4L135.2 40.2001H131.1L121.4 15.4V40.2001H117.2V11.8H123.8L133.1 35.7001L142.4 11.8H149.1ZM59 39.1C61.5 40 65.6 40.6 68.3 40.6C74.9 40.6 80.2 37.8 80.2 32.3C80.2 28.1 76.5 25.9 72.4 24.3L69.9 23.3C66.7 22.1 64.3 20.8 64.3 18.4C64.3 15.5 67.6 14.1 71.1 14.1C73.8 14.1 76.4 14.6 78.7 15.5L79 12.4C76.3 11.6 73.9 11.3 71 11.3C65.5 11.3 59.4 13.5 59.4 19C59.4 22.8 62.8 24.9 66.2 26.2L68.8 27.2C72.4 28.5 75.2 30.1001 75.2 32.9001C75.2 36.3001 71.6 37.7001 68.1 37.7001C64.9 37.7001 61.8 36.9001 59.3 35.7001L59 39.1ZM160 40.2001V28.9H163.9C170.5 28.9 176.1 26.6 176.1 20C176.1 13.4 170.4 11.8 164.2 11.8H155.4V40.2001H160ZM160 14.7H164.5C168.4 14.7 171.2 16.3 171.2 20C171.2 23.7 168.7 25.9 164.5 25.9H160V14.7ZM193.5 40.7001C203 40.7001 207.9 34.3 207.9 26C207.9 17.7 203.2 11.3 193.5 11.3C183.8 11.3 179.1 18 179.1 26C179.1 34 184 40.7001 193.5 40.7001ZM184 26C184 20.8 186.8 14.4 193.5 14.4C200.2 14.4 203 20.7 203 26C203 31.3 200.3 37.6 193.5 37.6C186.7 37.6 184 31.2 184 26ZM97.9 40.7001C107.4 40.7001 112.3 34.3 112.3 26C112.3 17.7 107.6 11.3 97.9 11.3C88.2 11.3 83.5 18.1 83.5 26C83.5 33.9 88.4 40.7001 97.9 40.7001ZM88.4 26C88.4 20.8 91.2 14.4 97.9 14.4C104.6 14.4 107.4 20.7 107.4 26C107.4 31.3 104.7 37.6 97.9 37.6C91.1 37.6 88.4 31.2 88.4 26Z" fill="#010101"/>
<path d="M18.7 7.69995C29 7.69995 37.4 15.9999 37.3 26.2999C37.3 36.5999 29 45 18.7 45C8.4 45 0 36.5999 0 26.2999C0 15.9999 8.4 7.69995 18.7 7.69995Z" fill="url(#paint0_linear_16_5115)"/>
<g style="mix-blend-mode:multiply">
<path d="M33 38.3001C34.4 36.7001 35.5 34.8001 36.2 32.8001C33.6 34.8001 30.2999 36.0001 26.7999 36.0001C18.2999 36.0001 11.5 29.1001 11.5 20.7001C11.5 15.2001 14.4 10.3001 18.8 7.6001C16.6 7.6001 14.5 8.0001 12.6 8.7001C9.89995 11.9001 8.19995 16.1001 8.19995 20.7001C8.19995 31.0001 16.6 39.4001 26.9 39.4001C28.9 39.4001 31 39.0001 33 38.3001Z" fill="#B4B3B3"/>
</g>
<path d="M7.69995 18.7C7.69995 29 15.9999 37.3 26.2999 37.3C36.5999 37.3 45 29 45 18.7C45 8.4 36.5999 0 26.2999 0C15.9999 0 7.69995 8.4 7.69995 18.7ZM42.7999 18.7C42.7999 27.8 35.4 35.2 26.2999 35.2C17.1999 35.2 9.89995 27.8 9.89995 18.7C9.89995 9.6 17.1999 2.2 26.2999 2.2C35.4 2.2 42.7999 9.6 42.7999 18.7Z" fill="url(#paint1_linear_16_5115)"/>
<path d="M9.3999 18.7C9.3999 28.1 16.9999 35.7 26.3999 35.7C35.7999 35.7 43.3999 28.1 43.3999 18.7C43.3999 9.29995 35.7999 1.69995 26.3999 1.69995C16.9999 1.69995 9.3999 9.29995 9.3999 18.7ZM41.6999 18.7C41.6999 27.2 34.7999 34 26.3999 34C17.9999 34 10.9999 27.1 10.9999 18.7C10.9999 10.3 17.8999 3.29995 26.2999 3.29995C34.6999 3.29995 41.6999 10.2 41.6999 18.7Z" fill="url(#paint2_linear_16_5115)"/>
<defs>
<linearGradient id="paint0_linear_16_5115" x1="18.6722" y1="45" x2="18.6722" y2="7.65565" gradientUnits="userSpaceOnUse">
<stop stop-color="#741610"/>
<stop offset="1" stop-color="#E10533"/>
</linearGradient>
<linearGradient id="paint1_linear_16_5115" x1="26.3279" y1="37.3442" x2="26.3279" y2="0" gradientUnits="userSpaceOnUse">
<stop stop-color="#CDCCCC"/>
<stop offset="0.09" stop-color="#A6A5A5"/>
<stop offset="0.4" stop-color="#404040"/>
<stop offset="0.5" stop-color="#E7E6E6"/>
<stop offset="1" stop-color="#BFBEBE"/>
</linearGradient>
<linearGradient id="paint2_linear_16_5115" x1="26.3278" y1="35.6435" x2="26.3278" y2="1.70055" gradientUnits="userSpaceOnUse">
<stop stop-color="#404040"/>
<stop offset="0.27" stop-color="#999999"/>
<stop offset="0.5" stop-color="#E7E6E6"/>
<stop offset="0.86" stop-color="#999999"/>
<stop offset="1" stop-color="#404040"/>
</linearGradient>
</defs>
</svg>
